HIERARCHY
ROOT Hips
{
	OFFSET 0.00000 0.00000 0.00000
	CHANNELS 6 Xposition Yposition Zposition Zrotation Yrotation Xrotation 
	JOINT LHipJoint
	{
		OFFSET 0 0 0
		CHANNELS 3 Zrotation Yrotation Xrotation
		JOINT LeftHip
		{
			OFFSET 1.58895 -1.83665 0.71753
			CHANNELS 3 Zrotation Yrotation Xrotation
			JOINT LeftKnee
			{
				OFFSET 2.50528 -6.88321 0.00000
				CHANNELS 3 Zrotation Yrotation Xrotation
				JOINT LeftAnkle
				{
					OFFSET 2.63244 -7.23257 0.00000
					CHANNELS 3 Zrotation Yrotation Xrotation
					JOINT LeftToe
					{
						OFFSET 0.23691 -0.65090 1.72750
						CHANNELS 3 Zrotation Yrotation Xrotation
						End Site
						{
							OFFSET 0.00000 -0.00000 0.92561
						}
					}
				}
			}
		}
	}
	JOINT RHipJoint
	{
		OFFSET 0 0 0
		CHANNELS 3 Zrotation Yrotation Xrotation
		JOINT RightHip
		{
			OFFSET -1.51435 -1.83665 0.71753
			CHANNELS 3 Zrotation Yrotation Xrotation
			JOINT RightKnee
			{
				OFFSET -2.54551 -6.99375 0.00000
				CHANNELS 3 Zrotation Yrotation Xrotation
				JOINT RightAnkle
				{
					OFFSET -2.66027 -7.30903 0.00000
					CHANNELS 3 Zrotation Yrotation Xrotation
					JOINT RightToe
					{
						OFFSET -0.22981 -0.63138 2.03959
						CHANNELS 3 Zrotation Yrotation Xrotation
						End Site
						{
							OFFSET -0.00000 -0.00000 1.07060
						}
					}
				}
			}
		}
	}
	JOINT lowerback
	{
		OFFSET 0 0 0
		CHANNELS 3 Zrotation Yrotation Xrotation
		JOINT Chest
		{
			OFFSET -0.02651 1.86275 -0.11152
			CHANNELS 3 Zrotation Yrotation Xrotation
			JOINT Chest2
			{
				OFFSET 0.01019 1.86224 0.04087
				CHANNELS 3 Zrotation Yrotation Xrotation
				JOINT lowerneck
				{
					OFFSET 0 0 0
					CHANNELS 3 Zrotation Yrotation Xrotation
					JOINT Neck
					{
						OFFSET -0.01926 1.80512 0.08867
						CHANNELS 3 Zrotation Yrotation Xrotation
						JOINT Head
						{
							OFFSET 0.05516 1.76451 -0.38475
							CHANNELS 3 Zrotation Yrotation Xrotation
							End Site
							{
								OFFSET 0.01592 1.82587 -0.14001
							}
						}
					}
				}
				JOINT LeftCollar
				{
					OFFSET 0 0 0
					CHANNELS 3 Zrotation Yrotation Xrotation
					JOINT LeftShoulder
					{
						OFFSET 3.47116 1.51376 0.14491
CHANNELS 3 Zrotation Xrotation Yrotation
						JOINT LeftElbow
						{
OFFSET 0 -4.780950 0.000000
CHANNELS 3 Zrotation Xrotation Yrotation
							JOINT LeftWrist
							{
OFFSET 0 -3.586150 -0.000000
CHANNELS 3 Zrotation Xrotation Yrotation
								JOINT lhand
								{
									OFFSET 0 0 0
CHANNELS 3 Zrotation Xrotation Yrotation
									JOINT LFingers
									{
OFFSET 0 -0.659810 0.000000
CHANNELS 3 Zrotation Xrotation Yrotation
										End Site
										{
OFFSET 0 -0.531960 0.000000
										}
									}
								}
								JOINT LThumb
								{
OFFSET 0 0.000000 0.000000
CHANNELS 3 Zrotation Xrotation Yrotation
									End Site
									{
OFFSET 0 -0.540080 0.540080
									}
								}
							}
						}
					}
				}
				JOINT RightCollar
				{
					OFFSET 0 0 0
					CHANNELS 3 Zrotation Yrotation Xrotation
					JOINT RightShoulder
					{
						OFFSET -3.31725 1.61216 0.35156
CHANNELS 3 Zrotation Xrotation Yrotation
						JOINT RightElbow
						{
OFFSET 0 -4.489130 0.000000
CHANNELS 3 Zrotation Xrotation Yrotation
							JOINT RightWrist
							{
OFFSET 0 -3.705100 0.000000
CHANNELS 3 Zrotation Xrotation Yrotation
								JOINT rhand
								{
									OFFSET 0 0 0
CHANNELS 3 Zrotation Xrotation Yrotation
									JOINT RFingers
									{
OFFSET 0 -0.449140 0.000000
CHANNELS 3 Zrotation Xrotation Yrotation
										End Site
										{
OFFSET 0 -0.362110 0.000000
										}
									}
								}
								JOINT RThumb
								{
OFFSET 0 0.000000 0.000000
CHANNELS 3 Zrotation Xrotation Yrotation
									End Site
									{
OFFSET 0 -0.367630 0.367630
									}
								}
							}
						}
					}
				}
			}
		}
	}
}
MOTION
Frames: 4
Frame Time: 0.008333333333333333
-0.527081 18.705787 5.684506 -1.569430 -2.488711 2.381742 0.000000 0.000000 0.000000 -13.354962 -6.237198 -2.486441 1.300598 7.224945 20.383536 1.694085 7.999220 -28.588035 7.965173 -16.093571 -52.437257 0.000000 0.000000 0.000000 0.000000 0.000000 0.000000 0.000000 0.000000 0.000000 0.000000 0.000000 0.000000 0.000000 0.000000 0.000000 -2.750716 1.558106 3.261020 0.301387 1.957405 -1.802007 1.723571 1.047465 -3.789979 -1.681132 -3.208731 -16.332809 5.346553 -4.616907 8.675412 1.525321 -1.912596 5.440805 0.000000 0.000000 0.000000 35.492200 -28.840867 -33.232753 138.890785 -48.713526 100.731360 31.316537 -58.773113 15.710574 0.000000 0.000000 0.000000 -7.125000 0.000000 0.000000 2.411542 11.767782 1.870730 0.000000 0.000000 0.000000 -29.998145 -24.203043 36.354466 -140.563645 -47.732380 -101.979029 -23.385276 -8.972966 48.977657 0.000000 0.000000 0.000000 7.125000 0.000000 0.000000 43.226366 78.568177 -34.778967
-0.524971 18.705900 5.694632 -1.543973 -2.516094 2.372596 0.000000 0.000000 0.000000 -13.392094 -6.196583 -2.467479 1.304286 7.234815 20.412798 1.704657 7.942831 -28.622730 7.952167 -16.083989 -52.390222 0.000000 0.000000 0.000000 0.000000 0.000000 0.000000 0.000000 0.000000 0.000000 0.000000 0.000000 0.000000 0.000000 0.000000 0.000000 -2.747563 1.573233 3.178406 0.275397 1.978656 -1.865757 1.694778 1.058586 -3.809357 -1.539912 -3.209005 -16.263351 5.210529 -4.627275 8.607201 1.459904 -1.925240 5.401470 0.000000 0.000000 0.000000 35.614231 -28.936441 -32.763749 138.940075 -48.685520 100.768421 31.639952 -58.729674 15.581887 0.000000 0.000000 0.000000 -7.125000 0.000000 0.000000 2.641214 11.858221 2.044304 0.000000 0.000000 0.000000 -30.170520 -24.424106 36.009609 -140.522434 -47.757289 -101.948528 -23.479197 -8.984729 48.952758 0.000000 0.000000 0.000000 7.125000 0.000000 0.000000 43.034177 78.593232 -34.635634
-0.514641 18.707520 5.697737 -1.532093 -2.666710 2.427213 0.000000 0.000000 0.000000 -13.485844 -6.339819 -2.430087 1.302830 7.230957 20.401460 1.727258 8.051836 -28.844184 7.895262 -16.041633 -52.184414 0.000000 0.000000 0.000000 0.000000 0.000000 0.000000 0.000000 0.000000 0.000000 0.000000 0.000000 0.000000 0.000000 0.000000 0.000000 -2.640660 1.606544 3.133981 0.245444 2.027454 -1.959344 1.600383 1.081537 -3.878598 -1.514317 -3.152240 -16.221656 5.205388 -4.554191 8.570132 1.461783 -1.890371 5.379822 0.000000 0.000000 0.000000 35.724910 -28.911180 -32.292023 138.987061 -48.658765 100.803646 31.923053 -58.643564 15.453620 0.000000 0.000000 0.000000 -7.125000 0.000000 0.000000 2.844407 11.955663 2.196270 0.000000 0.000000 0.000000 -30.371401 -24.635234 35.747596 -140.463566 -47.792881 -101.904882 -23.778397 -8.703755 48.773619 0.000000 0.000000 0.000000 7.125000 0.000000 0.000000 42.004790 78.612613 -33.778946
-0.502468 18.709185 5.698968 -1.505212 -2.900640 2.540783 0.000000 0.000000 0.000000 -13.627190 -6.556855 -2.419799 1.301033 7.226172 20.387159 1.748057 8.331797 -29.163263 7.867974 -16.021210 -52.085650 0.000000 0.000000 0.000000 0.000000 0.000000 0.000000 0.000000 0.000000 0.000000 0.000000 0.000000 0.000000 0.000000 0.000000 0.000000 -2.508224 1.670317 3.052927 0.200027 2.118660 -2.052941 1.473897 1.124187 -3.927113 -1.530794 -3.111081 -16.257260 5.246686 -4.501235 8.584890 1.482062 -1.861290 5.389966 0.000000 0.000000 0.000000 35.868136 -28.867177 -31.771831 139.030756 -48.633796 100.836444 31.817991 -58.597306 15.278594 0.000000 0.000000 0.000000 -7.125000 0.000000 0.000000 2.796820 12.174466 2.146722 0.000000 0.000000 0.000000 -30.596394 -24.874946 35.433327 -140.373484 -47.847104 -101.838125 -23.881810 -8.595277 48.910278 0.000000 0.000000 0.000000 7.125000 0.000000 0.000000 42.478034 78.736711 -34.278514
